# xmcd
#
# Track frame offsets: 
#        150
#        14493
#        30933
#        43261
#        61400
#        75124
#        89784
#        102707
#        112482
#        124236
#
# Disc length: 1906 seconds
#
# Revision: 0
# Processed by: cddbd v1.5.2PL0 Copyright (c) Steve Scherf et al.
# Submitted via: ExactAudioCopy v0.99pb3
#
DISCID=8907700a
DTITLE=Schurze Lars - Noodlin
DYEAR=2011
DGENRE=Country
TTITLE0=Root Beer Rag
TTITLE1=Noodlin'
TTITLE2=Chuck N.
TTITLE3=Pick Up The Pieces
TTITLE4=Honky Panky
TTITLE5=Donna Lee
TTITLE6=Pocket
TTITLE7=Satch Boogie
TTITLE8=Giant Steps
TTITLE9=Orange Blossom Special
EXTD=
EXTT0=
EXTT1=
EXTT2=
EXTT3=
EXTT4=
EXTT5=
EXTT6=
EXTT7=
EXTT8=
EXTT9=
PLAYORDER=
